<?xml version="1.0" encoding="UTF-8" standalone="no"?>
<!DOCTYPE svg PUBLIC "-//W3C//DTD SVG 1.1//EN"
 "http://www.w3.org/Graphics/SVG/1.1/DTD/svg11.dtd">
<!-- Generated by graphviz version 4.0.0 (0)
 -->
<!-- Pages: 1 -->
<svg width="1192pt" height="215pt"
 viewBox="0.00 0.00 1191.99 215.00" xmlns="http://www.w3.org/2000/svg" xmlns:xlink="http://www.w3.org/1999/xlink">
<g id="graph0" class="graph" transform="scale(1 1) rotate(0) translate(4 211)">
<polygon fill="white" stroke="transparent" points="-4,4 -4,-211 1187.99,-211 1187.99,4 -4,4"/>
<!-- 2169266272336 -->
<g id="node1" class="node">
<title>2169266272336</title>
<polygon fill="none" stroke="black" points="224,-160.5 224,-206.5 315,-206.5 315,-160.5 224,-160.5"/>
<text text-anchor="middle" x="269.5" y="-191.3" font-family="Times New Roman,serif" font-size="14.00">&#45;8.0000</text>
<polyline fill="none" stroke="black" points="224,-183.5 315,-183.5 "/>
<text text-anchor="middle" x="269.5" y="-168.3" font-family="Times New Roman,serif" font-size="14.00">grad=&#45;4.0000</text>
</g>
<!-- 2169265349520+ -->
<g id="node15" class="node">
<title>2169265349520+</title>
<ellipse fill="none" stroke="black" cx="378" cy="-118.5" rx="27" ry="18"/>
<text text-anchor="middle" x="378" y="-114.8" font-family="Times New Roman,serif" font-size="14.00">+</text>
</g>
<!-- 2169266272336&#45;&gt;2169265349520+ -->
<g id="edge13" class="edge">
<title>2169266272336&#45;&gt;2169265349520+</title>
<path fill="none" stroke="black" d="M308.35,-160.4C321.72,-152.24 336.52,-143.21 348.93,-135.63"/>
<polygon fill="black" stroke="black" points="350.79,-138.6 357.5,-130.4 347.14,-132.62 350.79,-138.6"/>
</g>
<!-- 2169266272336* -->
<g id="node2" class="node">
<title>2169266272336*</title>
<ellipse fill="none" stroke="black" cx="161" cy="-157.5" rx="27" ry="18"/>
<text text-anchor="middle" x="161" y="-153.8" font-family="Times New Roman,serif" font-size="14.00">*</text>
</g>
<!-- 2169266272336*&#45;&gt;2169266272336 -->
<g id="edge1" class="edge">
<title>2169266272336*&#45;&gt;2169266272336</title>
<path fill="none" stroke="black" d="M186.7,-163.53C194.91,-165.53 204.4,-167.85 213.95,-170.18"/>
<polygon fill="black" stroke="black" points="213.33,-173.63 223.87,-172.61 214.99,-166.83 213.33,-173.63"/>
</g>
<!-- 2169265355344 -->
<g id="node3" class="node">
<title>2169265355344</title>
<polygon fill="none" stroke="black" points="885.99,-65.5 885.99,-111.5 971.99,-111.5 971.99,-65.5 885.99,-65.5"/>
<text text-anchor="middle" x="928.99" y="-96.3" font-family="Times New Roman,serif" font-size="14.00">0.0000</text>
<polyline fill="none" stroke="black" points="885.99,-88.5 971.99,-88.5 "/>
<text text-anchor="middle" x="928.99" y="-73.3" font-family="Times New Roman,serif" font-size="14.00">grad=1.0000</text>
</g>
<!-- 2169265354576+ -->
<g id="node12" class="node">
<title>2169265354576+</title>
<ellipse fill="none" stroke="black" cx="1034.99" cy="-55.5" rx="27" ry="18"/>
<text text-anchor="middle" x="1034.99" y="-51.8" font-family="Times New Roman,serif" font-size="14.00">+</text>
</g>
<!-- 2169265355344&#45;&gt;2169265354576+ -->
<g id="edge16" class="edge">
<title>2169265355344&#45;&gt;2169265354576+</title>
<path fill="none" stroke="black" d="M972,-75.17C981.6,-72.13 991.68,-68.93 1000.85,-66.02"/>
<polygon fill="black" stroke="black" points="1001.91,-69.35 1010.38,-62.99 999.79,-62.68 1001.91,-69.35"/>
</g>
<!-- 2169265355344ReLU -->
<g id="node4" class="node">
<title>2169265355344ReLU</title>
<ellipse fill="none" stroke="black" cx="817.5" cy="-85.5" rx="32.49" ry="18"/>
<text text-anchor="middle" x="817.5" y="-81.8" font-family="Times New Roman,serif" font-size="14.00">ReLU</text>
</g>
<!-- 2169265355344ReLU&#45;&gt;2169265355344 -->
<g id="edge2" class="edge">
<title>2169265355344ReLU&#45;&gt;2169265355344</title>
<path fill="none" stroke="black" d="M850.17,-86.37C858.16,-86.59 866.95,-86.83 875.66,-87.07"/>
<polygon fill="black" stroke="black" points="875.7,-90.57 885.8,-87.34 875.9,-83.57 875.7,-90.57"/>
</g>
<!-- 2169266259088 -->
<g id="node5" class="node">
<title>2169266259088</title>
<polygon fill="none" stroke="black" points="0,-43.5 0,-89.5 98,-89.5 98,-43.5 0,-43.5"/>
<text text-anchor="middle" x="49" y="-74.3" font-family="Times New Roman,serif" font-size="14.00">&#45;4.0000</text>
<polyline fill="none" stroke="black" points="0,-66.5 98,-66.5 "/>
<text text-anchor="middle" x="49" y="-51.3" font-family="Times New Roman,serif" font-size="14.00">grad=&#45;22.0000</text>
</g>
<!-- 2169266259088&#45;&gt;2169266272336* -->
<g id="edge14" class="edge">
<title>2169266259088&#45;&gt;2169266272336*</title>
<path fill="none" stroke="black" d="M78.04,-89.7C95.77,-104.36 118.45,-123.13 135.46,-137.2"/>
<polygon fill="black" stroke="black" points="133.37,-140.01 143.31,-143.69 137.83,-134.62 133.37,-140.01"/>
</g>
<!-- 2169265347728+ -->
<g id="node7" class="node">
<title>2169265347728+</title>
<ellipse fill="none" stroke="black" cx="595" cy="-82.5" rx="27" ry="18"/>
<text text-anchor="middle" x="595" y="-78.8" font-family="Times New Roman,serif" font-size="14.00">+</text>
</g>
<!-- 2169266259088&#45;&gt;2169265347728+ -->
<g id="edge10" class="edge">
<title>2169266259088&#45;&gt;2169265347728+</title>
<path fill="none" stroke="black" d="M98.17,-66.5C142.44,-66.5 209.89,-66.5 268.5,-66.5 268.5,-66.5 268.5,-66.5 379,-66.5 442.14,-66.5 515.43,-73.45 558.08,-78.19"/>
<polygon fill="black" stroke="black" points="557.9,-81.69 568.23,-79.34 558.69,-74.73 557.9,-81.69"/>
</g>
<!-- 2169265355024* -->
<g id="node10" class="node">
<title>2169265355024*</title>
<ellipse fill="none" stroke="black" cx="817.5" cy="-28.5" rx="27" ry="18"/>
<text text-anchor="middle" x="817.5" y="-24.8" font-family="Times New Roman,serif" font-size="14.00">*</text>
</g>
<!-- 2169266259088&#45;&gt;2169265355024* -->
<g id="edge8" class="edge">
<title>2169266259088&#45;&gt;2169265355024*</title>
<path fill="none" stroke="black" d="M98.18,-53.21C142.18,-42.25 209.2,-28.5 268.5,-28.5 268.5,-28.5 268.5,-28.5 596,-28.5 660.89,-28.5 736.53,-28.5 780.23,-28.5"/>
<polygon fill="black" stroke="black" points="780.36,-32 790.36,-28.5 780.36,-25 780.36,-32"/>
</g>
<!-- 2169265347728 -->
<g id="node6" class="node">
<title>2169265347728</title>
<polygon fill="none" stroke="black" points="658,-59.5 658,-105.5 749,-105.5 749,-59.5 658,-59.5"/>
<text text-anchor="middle" x="703.5" y="-90.3" font-family="Times New Roman,serif" font-size="14.00">&#45;10.0000</text>
<polyline fill="none" stroke="black" points="658,-82.5 749,-82.5 "/>
<text text-anchor="middle" x="703.5" y="-67.3" font-family="Times New Roman,serif" font-size="14.00">grad=&#45;4.0000</text>
</g>
<!-- 2169265347728&#45;&gt;2169265355344ReLU -->
<g id="edge17" class="edge">
<title>2169265347728&#45;&gt;2169265355344ReLU</title>
<path fill="none" stroke="black" d="M749.09,-83.69C757.49,-83.92 766.26,-84.15 774.58,-84.38"/>
<polygon fill="black" stroke="black" points="774.73,-87.88 784.82,-84.65 774.92,-80.88 774.73,-87.88"/>
</g>
<!-- 2169265347728&#45;&gt;2169265355024* -->
<g id="edge9" class="edge">
<title>2169265347728&#45;&gt;2169265355024*</title>
<path fill="none" stroke="black" d="M749.09,-61C761.48,-55.03 774.65,-48.68 786.03,-43.19"/>
<polygon fill="black" stroke="black" points="787.62,-46.31 795.11,-38.81 784.58,-40 787.62,-46.31"/>
</g>
<!-- 2169265347728+&#45;&gt;2169265347728 -->
<g id="edge3" class="edge">
<title>2169265347728+&#45;&gt;2169265347728</title>
<path fill="none" stroke="black" d="M622.05,-82.5C629.84,-82.5 638.68,-82.5 647.59,-82.5"/>
<polygon fill="black" stroke="black" points="647.62,-86 657.62,-82.5 647.62,-79 647.62,-86"/>
</g>
<!-- 2169242829968 -->
<g id="node8" class="node">
<title>2169242829968</title>
<polygon fill="none" stroke="black" points="224,-95.5 224,-141.5 315,-141.5 315,-95.5 224,-95.5"/>
<text text-anchor="middle" x="269.5" y="-126.3" font-family="Times New Roman,serif" font-size="14.00">2.0000</text>
<polyline fill="none" stroke="black" points="224,-118.5 315,-118.5 "/>
<text text-anchor="middle" x="269.5" y="-103.3" font-family="Times New Roman,serif" font-size="14.00">grad=&#45;4.0000</text>
</g>
<!-- 2169242829968&#45;&gt;2169265349520+ -->
<g id="edge12" class="edge">
<title>2169242829968&#45;&gt;2169265349520+</title>
<path fill="none" stroke="black" d="M315.05,-118.5C323.63,-118.5 332.51,-118.5 340.78,-118.5"/>
<polygon fill="black" stroke="black" points="340.87,-122 350.87,-118.5 340.87,-115 340.87,-122"/>
</g>
<!-- 2169265355024 -->
<g id="node9" class="node">
<title>2169265355024</title>
<polygon fill="none" stroke="black" points="885.99,-0.5 885.99,-46.5 971.99,-46.5 971.99,-0.5 885.99,-0.5"/>
<text text-anchor="middle" x="928.99" y="-31.3" font-family="Times New Roman,serif" font-size="14.00">40.0000</text>
<polyline fill="none" stroke="black" points="885.99,-23.5 971.99,-23.5 "/>
<text text-anchor="middle" x="928.99" y="-8.3" font-family="Times New Roman,serif" font-size="14.00">grad=1.0000</text>
</g>
<!-- 2169265355024&#45;&gt;2169265354576+ -->
<g id="edge7" class="edge">
<title>2169265355024&#45;&gt;2169265354576+</title>
<path fill="none" stroke="black" d="M972,-36.42C981.42,-39.32 991.29,-42.36 1000.32,-45.14"/>
<polygon fill="black" stroke="black" points="999.5,-48.55 1010.09,-48.14 1001.56,-41.86 999.5,-48.55"/>
</g>
<!-- 2169265355024*&#45;&gt;2169265355024 -->
<g id="edge4" class="edge">
<title>2169265355024*&#45;&gt;2169265355024</title>
<path fill="none" stroke="black" d="M844.45,-27.32C853.84,-26.89 864.81,-26.39 875.66,-25.89"/>
<polygon fill="black" stroke="black" points="876.14,-29.37 885.97,-25.42 875.82,-22.38 876.14,-29.37"/>
</g>
<!-- 2169265354576 -->
<g id="node11" class="node">
<title>2169265354576</title>
<polygon fill="none" stroke="black" points="1097.99,-32.5 1097.99,-78.5 1183.99,-78.5 1183.99,-32.5 1097.99,-32.5"/>
<text text-anchor="middle" x="1140.99" y="-63.3" font-family="Times New Roman,serif" font-size="14.00">40.0000</text>
<polyline fill="none" stroke="black" points="1097.99,-55.5 1183.99,-55.5 "/>
<text text-anchor="middle" x="1140.99" y="-40.3" font-family="Times New Roman,serif" font-size="14.00">grad=1.0000</text>
</g>
<!-- 2169265354576+&#45;&gt;2169265354576 -->
<g id="edge5" class="edge">
<title>2169265354576+&#45;&gt;2169265354576</title>
<path fill="none" stroke="black" d="M1062.24,-55.5C1070.11,-55.5 1079.03,-55.5 1087.95,-55.5"/>
<polygon fill="black" stroke="black" points="1087.97,-59 1097.97,-55.5 1087.97,-52 1087.97,-59"/>
</g>
<!-- 2169264883536 -->
<g id="node13" class="node">
<title>2169264883536</title>
<polygon fill="none" stroke="black" points="2.5,-134.5 2.5,-180.5 95.5,-180.5 95.5,-134.5 2.5,-134.5"/>
<text text-anchor="middle" x="49" y="-165.3" font-family="Times New Roman,serif" font-size="14.00">2.0000</text>
<polyline fill="none" stroke="black" points="2.5,-157.5 95.5,-157.5 "/>
<text text-anchor="middle" x="49" y="-142.3" font-family="Times New Roman,serif" font-size="14.00">grad=16.0000</text>
</g>
<!-- 2169264883536&#45;&gt;2169266272336* -->
<g id="edge15" class="edge">
<title>2169264883536&#45;&gt;2169266272336*</title>
<path fill="none" stroke="black" d="M95.69,-157.5C105.03,-157.5 114.73,-157.5 123.68,-157.5"/>
<polygon fill="black" stroke="black" points="123.78,-161 133.78,-157.5 123.78,-154 123.78,-161"/>
</g>
<!-- 2169265349520 -->
<g id="node14" class="node">
<title>2169265349520</title>
<polygon fill="none" stroke="black" points="441,-95.5 441,-141.5 532,-141.5 532,-95.5 441,-95.5"/>
<text text-anchor="middle" x="486.5" y="-126.3" font-family="Times New Roman,serif" font-size="14.00">&#45;6.0000</text>
<polyline fill="none" stroke="black" points="441,-118.5 532,-118.5 "/>
<text text-anchor="middle" x="486.5" y="-103.3" font-family="Times New Roman,serif" font-size="14.00">grad=&#45;4.0000</text>
</g>
<!-- 2169265349520&#45;&gt;2169265347728+ -->
<g id="edge11" class="edge">
<title>2169265349520&#45;&gt;2169265347728+</title>
<path fill="none" stroke="black" d="M532.05,-103.44C541.76,-100.16 551.87,-96.74 561.03,-93.64"/>
<polygon fill="black" stroke="black" points="562.19,-96.95 570.55,-90.43 559.95,-90.31 562.19,-96.95"/>
</g>
<!-- 2169265349520+&#45;&gt;2169265349520 -->
<g id="edge6" class="edge">
<title>2169265349520+&#45;&gt;2169265349520</title>
<path fill="none" stroke="black" d="M405.05,-118.5C412.84,-118.5 421.68,-118.5 430.59,-118.5"/>
<polygon fill="black" stroke="black" points="430.62,-122 440.62,-118.5 430.62,-115 430.62,-122"/>
</g>
</g>
</svg>
