<?xml version="1.0" encoding="UTF-8" standalone="no"?>
<!DOCTYPE svg PUBLIC "-//W3C//DTD SVG 1.1//EN"
 "http://www.w3.org/Graphics/SVG/1.1/DTD/svg11.dtd">
<!-- Generated by graphviz version 4.0.0 (0)
 -->
<!-- Pages: 1 -->
<svg width="1192pt" height="213pt"
 viewBox="0.00 0.00 1191.99 213.00" xmlns="http://www.w3.org/2000/svg" xmlns:xlink="http://www.w3.org/1999/xlink">
<g id="graph0" class="graph" transform="scale(1 1) rotate(0) translate(4 209)">
<polygon fill="white" stroke="transparent" points="-4,4 -4,-209 1187.99,-209 1187.99,4 -4,4"/>
<!-- 2667282333200 -->
<g id="node1" class="node">
<title>2667282333200</title>
<polygon fill="none" stroke="black" points="885.99,-158.5 885.99,-204.5 971.99,-204.5 971.99,-158.5 885.99,-158.5"/>
<text text-anchor="middle" x="928.99" y="-189.3" font-family="Times New Roman,serif" font-size="14.00">40.0000</text>
<polyline fill="none" stroke="black" points="885.99,-181.5 971.99,-181.5 "/>
<text text-anchor="middle" x="928.99" y="-166.3" font-family="Times New Roman,serif" font-size="14.00">grad=1.0000</text>
</g>
<!-- 2667282330320+ -->
<g id="node10" class="node">
<title>2667282330320+</title>
<ellipse fill="none" stroke="black" cx="1034.99" cy="-148.5" rx="27" ry="18"/>
<text text-anchor="middle" x="1034.99" y="-144.8" font-family="Times New Roman,serif" font-size="14.00">+</text>
</g>
<!-- 2667282333200&#45;&gt;2667282330320+ -->
<g id="edge15" class="edge">
<title>2667282333200&#45;&gt;2667282330320+</title>
<path fill="none" stroke="black" d="M972,-168.17C981.6,-165.13 991.68,-161.93 1000.85,-159.02"/>
<polygon fill="black" stroke="black" points="1001.91,-162.35 1010.38,-155.99 999.79,-155.68 1001.91,-162.35"/>
</g>
<!-- 2667282333200* -->
<g id="node2" class="node">
<title>2667282333200*</title>
<ellipse fill="none" stroke="black" cx="817.5" cy="-178.5" rx="27" ry="18"/>
<text text-anchor="middle" x="817.5" y="-174.8" font-family="Times New Roman,serif" font-size="14.00">*</text>
</g>
<!-- 2667282333200*&#45;&gt;2667282333200 -->
<g id="edge1" class="edge">
<title>2667282333200*&#45;&gt;2667282333200</title>
<path fill="none" stroke="black" d="M844.72,-179.22C854.03,-179.47 864.85,-179.77 875.56,-180.06"/>
<polygon fill="black" stroke="black" points="875.64,-183.57 885.73,-180.34 875.83,-176.57 875.64,-183.57"/>
</g>
<!-- 2667282327632 -->
<g id="node3" class="node">
<title>2667282327632</title>
<polygon fill="none" stroke="black" points="224,-0.5 224,-46.5 315,-46.5 315,-0.5 224,-0.5"/>
<text text-anchor="middle" x="269.5" y="-31.3" font-family="Times New Roman,serif" font-size="14.00">&#45;8.0000</text>
<polyline fill="none" stroke="black" points="224,-23.5 315,-23.5 "/>
<text text-anchor="middle" x="269.5" y="-8.3" font-family="Times New Roman,serif" font-size="14.00">grad=&#45;4.0000</text>
</g>
<!-- 2667282331792+ -->
<g id="node8" class="node">
<title>2667282331792+</title>
<ellipse fill="none" stroke="black" cx="378" cy="-88.5" rx="27" ry="18"/>
<text text-anchor="middle" x="378" y="-84.8" font-family="Times New Roman,serif" font-size="14.00">+</text>
</g>
<!-- 2667282327632&#45;&gt;2667282331792+ -->
<g id="edge11" class="edge">
<title>2667282327632&#45;&gt;2667282331792+</title>
<path fill="none" stroke="black" d="M308.35,-46.6C321.72,-54.76 336.52,-63.79 348.93,-71.37"/>
<polygon fill="black" stroke="black" points="347.14,-74.38 357.5,-76.6 350.79,-68.4 347.14,-74.38"/>
</g>
<!-- 2667282327632* -->
<g id="node4" class="node">
<title>2667282327632*</title>
<ellipse fill="none" stroke="black" cx="161" cy="-49.5" rx="27" ry="18"/>
<text text-anchor="middle" x="161" y="-45.8" font-family="Times New Roman,serif" font-size="14.00">*</text>
</g>
<!-- 2667282327632*&#45;&gt;2667282327632 -->
<g id="edge2" class="edge">
<title>2667282327632*&#45;&gt;2667282327632</title>
<path fill="none" stroke="black" d="M186.7,-43.47C194.91,-41.47 204.4,-39.15 213.95,-36.82"/>
<polygon fill="black" stroke="black" points="214.99,-40.17 223.87,-34.39 213.33,-33.37 214.99,-40.17"/>
</g>
<!-- 2667282325648 -->
<g id="node5" class="node">
<title>2667282325648</title>
<polygon fill="none" stroke="black" points="885.99,-93.5 885.99,-139.5 971.99,-139.5 971.99,-93.5 885.99,-93.5"/>
<text text-anchor="middle" x="928.99" y="-124.3" font-family="Times New Roman,serif" font-size="14.00">0.0000</text>
<polyline fill="none" stroke="black" points="885.99,-116.5 971.99,-116.5 "/>
<text text-anchor="middle" x="928.99" y="-101.3" font-family="Times New Roman,serif" font-size="14.00">grad=1.0000</text>
</g>
<!-- 2667282325648&#45;&gt;2667282330320+ -->
<g id="edge7" class="edge">
<title>2667282325648&#45;&gt;2667282330320+</title>
<path fill="none" stroke="black" d="M972,-129.42C981.42,-132.32 991.29,-135.36 1000.32,-138.14"/>
<polygon fill="black" stroke="black" points="999.5,-141.55 1010.09,-141.14 1001.56,-134.86 999.5,-141.55"/>
</g>
<!-- 2667282325648ReLU -->
<g id="node6" class="node">
<title>2667282325648ReLU</title>
<ellipse fill="none" stroke="black" cx="817.5" cy="-121.5" rx="32.49" ry="18"/>
<text text-anchor="middle" x="817.5" y="-117.8" font-family="Times New Roman,serif" font-size="14.00">ReLU</text>
</g>
<!-- 2667282325648ReLU&#45;&gt;2667282325648 -->
<g id="edge3" class="edge">
<title>2667282325648ReLU&#45;&gt;2667282325648</title>
<path fill="none" stroke="black" d="M850.17,-120.05C858.16,-119.69 866.95,-119.29 875.66,-118.89"/>
<polygon fill="black" stroke="black" points="875.97,-122.38 885.8,-118.43 875.65,-115.39 875.97,-122.38"/>
</g>
<!-- 2667282331792 -->
<g id="node7" class="node">
<title>2667282331792</title>
<polygon fill="none" stroke="black" points="441,-65.5 441,-111.5 532,-111.5 532,-65.5 441,-65.5"/>
<text text-anchor="middle" x="486.5" y="-96.3" font-family="Times New Roman,serif" font-size="14.00">&#45;6.0000</text>
<polyline fill="none" stroke="black" points="441,-88.5 532,-88.5 "/>
<text text-anchor="middle" x="486.5" y="-73.3" font-family="Times New Roman,serif" font-size="14.00">grad=&#45;4.0000</text>
</g>
<!-- 2667282328464+ -->
<g id="node15" class="node">
<title>2667282328464+</title>
<ellipse fill="none" stroke="black" cx="595" cy="-122.5" rx="27" ry="18"/>
<text text-anchor="middle" x="595" y="-118.8" font-family="Times New Roman,serif" font-size="14.00">+</text>
</g>
<!-- 2667282331792&#45;&gt;2667282328464+ -->
<g id="edge9" class="edge">
<title>2667282331792&#45;&gt;2667282328464+</title>
<path fill="none" stroke="black" d="M532.05,-102.72C541.57,-105.76 551.48,-108.93 560.51,-111.81"/>
<polygon fill="black" stroke="black" points="559.66,-115.21 570.25,-114.92 561.79,-108.54 559.66,-115.21"/>
</g>
<!-- 2667282331792+&#45;&gt;2667282331792 -->
<g id="edge4" class="edge">
<title>2667282331792+&#45;&gt;2667282331792</title>
<path fill="none" stroke="black" d="M405.05,-88.5C412.84,-88.5 421.68,-88.5 430.59,-88.5"/>
<polygon fill="black" stroke="black" points="430.62,-92 440.62,-88.5 430.62,-85 430.62,-92"/>
</g>
<!-- 2667282330320 -->
<g id="node9" class="node">
<title>2667282330320</title>
<polygon fill="none" stroke="black" points="1097.99,-125.5 1097.99,-171.5 1183.99,-171.5 1183.99,-125.5 1097.99,-125.5"/>
<text text-anchor="middle" x="1140.99" y="-156.3" font-family="Times New Roman,serif" font-size="14.00">40.0000</text>
<polyline fill="none" stroke="black" points="1097.99,-148.5 1183.99,-148.5 "/>
<text text-anchor="middle" x="1140.99" y="-133.3" font-family="Times New Roman,serif" font-size="14.00">grad=1.0000</text>
</g>
<!-- 2667282330320+&#45;&gt;2667282330320 -->
<g id="edge5" class="edge">
<title>2667282330320+&#45;&gt;2667282330320</title>
<path fill="none" stroke="black" d="M1062.24,-148.5C1070.11,-148.5 1079.03,-148.5 1087.95,-148.5"/>
<polygon fill="black" stroke="black" points="1087.97,-152 1097.97,-148.5 1087.97,-145 1087.97,-152"/>
</g>
<!-- 2667282320656 -->
<g id="node11" class="node">
<title>2667282320656</title>
<polygon fill="none" stroke="black" points="0,-117.5 0,-163.5 98,-163.5 98,-117.5 0,-117.5"/>
<text text-anchor="middle" x="49" y="-148.3" font-family="Times New Roman,serif" font-size="14.00">&#45;4.0000</text>
<polyline fill="none" stroke="black" points="0,-140.5 98,-140.5 "/>
<text text-anchor="middle" x="49" y="-125.3" font-family="Times New Roman,serif" font-size="14.00">grad=&#45;22.0000</text>
</g>
<!-- 2667282320656&#45;&gt;2667282333200* -->
<g id="edge17" class="edge">
<title>2667282320656&#45;&gt;2667282333200*</title>
<path fill="none" stroke="black" d="M98.18,-153.79C142.18,-164.75 209.2,-178.5 268.5,-178.5 268.5,-178.5 268.5,-178.5 596,-178.5 660.89,-178.5 736.53,-178.5 780.23,-178.5"/>
<polygon fill="black" stroke="black" points="780.36,-182 790.36,-178.5 780.36,-175 780.36,-182"/>
</g>
<!-- 2667282320656&#45;&gt;2667282327632* -->
<g id="edge12" class="edge">
<title>2667282320656&#45;&gt;2667282327632*</title>
<path fill="none" stroke="black" d="M78.04,-117.3C95.77,-102.64 118.45,-83.87 135.46,-69.8"/>
<polygon fill="black" stroke="black" points="137.83,-72.38 143.31,-63.31 133.37,-66.99 137.83,-72.38"/>
</g>
<!-- 2667282320656&#45;&gt;2667282328464+ -->
<g id="edge14" class="edge">
<title>2667282320656&#45;&gt;2667282328464+</title>
<path fill="none" stroke="black" d="M98.17,-140.5C142.44,-140.5 209.89,-140.5 268.5,-140.5 268.5,-140.5 268.5,-140.5 379,-140.5 442.19,-140.5 515.47,-132.68 558.09,-127.35"/>
<polygon fill="black" stroke="black" points="558.77,-130.79 568.24,-126.06 557.88,-123.85 558.77,-130.79"/>
</g>
<!-- 2667282327952 -->
<g id="node12" class="node">
<title>2667282327952</title>
<polygon fill="none" stroke="black" points="224,-65.5 224,-111.5 315,-111.5 315,-65.5 224,-65.5"/>
<text text-anchor="middle" x="269.5" y="-96.3" font-family="Times New Roman,serif" font-size="14.00">2.0000</text>
<polyline fill="none" stroke="black" points="224,-88.5 315,-88.5 "/>
<text text-anchor="middle" x="269.5" y="-73.3" font-family="Times New Roman,serif" font-size="14.00">grad=&#45;4.0000</text>
</g>
<!-- 2667282327952&#45;&gt;2667282331792+ -->
<g id="edge10" class="edge">
<title>2667282327952&#45;&gt;2667282331792+</title>
<path fill="none" stroke="black" d="M315.05,-88.5C323.63,-88.5 332.51,-88.5 340.78,-88.5"/>
<polygon fill="black" stroke="black" points="340.87,-92 350.87,-88.5 340.87,-85 340.87,-92"/>
</g>
<!-- 2668953361744 -->
<g id="node13" class="node">
<title>2668953361744</title>
<polygon fill="none" stroke="black" points="2.5,-26.5 2.5,-72.5 95.5,-72.5 95.5,-26.5 2.5,-26.5"/>
<text text-anchor="middle" x="49" y="-57.3" font-family="Times New Roman,serif" font-size="14.00">2.0000</text>
<polyline fill="none" stroke="black" points="2.5,-49.5 95.5,-49.5 "/>
<text text-anchor="middle" x="49" y="-34.3" font-family="Times New Roman,serif" font-size="14.00">grad=16.0000</text>
</g>
<!-- 2668953361744&#45;&gt;2667282327632* -->
<g id="edge13" class="edge">
<title>2668953361744&#45;&gt;2667282327632*</title>
<path fill="none" stroke="black" d="M95.69,-49.5C105.03,-49.5 114.73,-49.5 123.68,-49.5"/>
<polygon fill="black" stroke="black" points="123.78,-53 133.78,-49.5 123.78,-46 123.78,-53"/>
</g>
<!-- 2667282328464 -->
<g id="node14" class="node">
<title>2667282328464</title>
<polygon fill="none" stroke="black" points="658,-99.5 658,-145.5 749,-145.5 749,-99.5 658,-99.5"/>
<text text-anchor="middle" x="703.5" y="-130.3" font-family="Times New Roman,serif" font-size="14.00">&#45;10.0000</text>
<polyline fill="none" stroke="black" points="658,-122.5 749,-122.5 "/>
<text text-anchor="middle" x="703.5" y="-107.3" font-family="Times New Roman,serif" font-size="14.00">grad=&#45;4.0000</text>
</g>
<!-- 2667282328464&#45;&gt;2667282333200* -->
<g id="edge16" class="edge">
<title>2667282328464&#45;&gt;2667282333200*</title>
<path fill="none" stroke="black" d="M749.09,-144.79C761.57,-151.04 774.85,-157.68 786.29,-163.4"/>
<polygon fill="black" stroke="black" points="784.9,-166.61 795.41,-167.96 788.03,-160.35 784.9,-166.61"/>
</g>
<!-- 2667282328464&#45;&gt;2667282325648ReLU -->
<g id="edge8" class="edge">
<title>2667282328464&#45;&gt;2667282325648ReLU</title>
<path fill="none" stroke="black" d="M749.09,-122.1C757.49,-122.03 766.26,-121.95 774.58,-121.87"/>
<polygon fill="black" stroke="black" points="774.85,-125.37 784.82,-121.78 774.79,-118.37 774.85,-125.37"/>
</g>
<!-- 2667282328464+&#45;&gt;2667282328464 -->
<g id="edge6" class="edge">
<title>2667282328464+&#45;&gt;2667282328464</title>
<path fill="none" stroke="black" d="M622.05,-122.5C629.84,-122.5 638.68,-122.5 647.59,-122.5"/>
<polygon fill="black" stroke="black" points="647.62,-126 657.62,-122.5 647.62,-119 647.62,-126"/>
</g>
</g>
</svg>
